# xmcd CD database file
#
# Track frame offsets:
#	150
#	13538
#	40598
#	72031
#	95604
#	116285
#	134927
#	154137
#	177837
#	196336
#
# Disc length: 3043 seconds
#
# Revision: 0
# Processed by: cddbd v1.5.2PL0 Copyright (c) Steve Scherf et al.
# Submitted via: CDex 1.72
#
DISCID=800be10a
DTITLE=Heineman, Jim, Dream Band [CDN-14-Nature Is Our Mother-jazz) - Nature Is Our Mother
DYEAR=2014
DGENRE=Jazz
TTITLE0=Stress
TTITLE1=Freedom's Gonna Be Alright
TTITLE2=Winter Love
TTITLE3=Nature Is Our Mother
TTITLE4=Requiem For Ronnie
TTITLE5=Oil and Water
TTITLE6=You Asked Me
TTITLE7=Time and Soace Worlds
TTITLE8=Dance Of The Butterflies
TTITLE9=N'awlins Blues
EXTD=YEAR: 2014
EXTT0=
EXTT1=
EXTT2=
EXTT3=
EXTT4=
EXTT5=
EXTT6=
EXTT7=
EXTT8=
EXTT9=
PLAYORDER=
